<svg version="1.1" id="&#xB808;&#xC774;&#xC5B4;_1" xmlns="http://www.w3.org/2000/svg" xmlns:xlink="http://www.w3.org/1999/xlink"
	 x="0px" y="0px" viewBox="0 0 20 20" style="enable-background:new 0 0 20 20;" xml:space="preserve">
<g>
	<path style="fill:none;stroke:#000000;stroke-width:1.3128;stroke-linecap:round;stroke-linejoin:round;stroke-miterlimit:10;" d="
		M9.847,15.679l-4.856,2.553c-0.24,0.126-0.521-0.078-0.476-0.346l0.927-5.407c0.018-0.106-0.017-0.215-0.094-0.29L1.42,8.359
		C1.226,8.17,1.333,7.839,1.602,7.8l5.429-0.789C7.138,6.996,7.23,6.929,7.278,6.832l2.428-4.92c0.12-0.244,0.468-0.244,0.588,0
		l2.428,4.92c0.048,0.097,0.14,0.164,0.247,0.179L18.398,7.8c0.269,0.039,0.376,0.369,0.182,0.559l-3.929,3.829
		c-0.077,0.075-0.112,0.184-0.094,0.29l0.927,5.407c0.046,0.268-0.235,0.472-0.476,0.346l-4.856-2.553
		C10.057,15.629,9.943,15.629,9.847,15.679z"/>
</g>
</svg>
